<?xml version="1.0" encoding="utf-8"?>
<svg version="1.1" id="Calque_1" xmlns="http://www.w3.org/2000/svg" xmlns:xlink="http://www.w3.org/1999/xlink" x="0px" y="0px"
	 viewBox="0 0 1200 430" style="enable-background:new 0 0 1200 430;" xml:space="preserve">
<style type="text/css">
	.st0{fill:#FBB900;}
</style>
<g>
	<path class="st0" d="M1086.6,2c0.5,0,0.8,0.2,1,0.7l108.5,204.9c2.5,4.7,2.5,10.3,0,14.9l-108.5,204.9c-0.2,0.4-0.6,0.7-1,0.7
		c-0.4,0-1.3-0.3-1.3-1.2v-84.3c0-4.3-3.5-7.9-7.9-7.9H5.9c-2.1,0-3.9-1.7-3.9-3.9V99.2c0-2.1,1.7-3.9,3.9-3.9h1071.6
		c4.3,0,7.9-3.5,7.9-7.9V3.2C1085.4,2.3,1086.2,2,1086.6,2 M1086.6,0c-1.6,0-3.3,1.2-3.3,3.2v84.3c0,3.2-2.6,5.9-5.9,5.9H5.9
		C2.6,93.3,0,96,0,99.2v231.6c0,3.2,2.6,5.9,5.9,5.9h1071.6c3.2,0,5.9,2.6,5.9,5.9v84.3c0,2,1.6,3.2,3.3,3.2c1.1,0,2.2-0.5,2.8-1.7
		l108.5-204.9c2.8-5.3,2.8-11.5,0-16.8L1089.4,1.7C1088.8,0.5,1087.7,0,1086.6,0L1086.6,0z"/>
</g>
</svg>
